# xmcd CD database file
#
# Track frame offsets:
#	150
#	20540
#	34765
#	48472
#	66107
#	85202
#	102235
#	123912
#	138025
#	155312
#	178792
#
# Disc length: 2656 seconds
#
# Revision: 1
# Processed by: cddbd v1.5PL3 Copyright (c) Steve Scherf et al.
# Submitted via: CDex 1.51
#
DISCID=880a5e0b
DTITLE=Earl King - New Orleans Street Talkin'
DYEAR=1997
DGENRE=Blues
TTITLE0=It All Went Down the Drain
TTITLE1=Everybody's Got to Cry Sometime
TTITLE2=Clairvoyant Lady
TTITLE3=Sexual Telepathy
TTITLE4=Love Is the Way of Life
TTITLE5=Medieval Days
TTITLE6=Time for the Sun to Rise
TTITLE7=Old Mr. Bad Luck
TTITLE8=Always a First Time
TTITLE9=Hard River to Cross
TTITLE10=No City Like New Orleans
EXTD=YEAR: 1997
EXTT0=
EXTT1=
EXTT2=
EXTT3=
EXTT4=
EXTT5=
EXTT6=
EXTT7=
EXTT8=
EXTT9=
EXTT10=
PLAYORDER=
